<svg xmlns="http://www.w3.org/2000/svg" viewBox="0 0 512 512" width="100%" height="100%">
  <rect width="512" height="170.66" fill="#FF9933"/>
  <rect y="170.66" width="512" height="170.66" fill="#FFFFFF"/>
  <rect y="341.33" width="512" height="170.66" fill="#138808"/>
  <circle cx="256" cy="256" r="60" fill="none" stroke="#000080" stroke-width="7"/>
  <circle cx="256" cy="256" r="14" fill="#000080"/>
  <!-- 24 Spokes -->
  <g stroke="#000080" stroke-width="3.5">
    <line x1="256" y1="196" x2="256" y2="316"/>
    <line x1="256" y1="196" x2="256" y2="316" transform="rotate(15 256 256)"/>
    <line x1="256" y1="196" x2="256" y2="316" transform="rotate(30 256 256)"/>
    <line x1="256" y1="196" x2="256" y2="316" transform="rotate(45 256 256)"/>
    <line x1="256" y1="196" x2="256" y2="316" transform="rotate(60 256 256)"/>
    <line x1="256" y1="196" x2="256" y2="316" transform="rotate(75 256 256)"/>
    <line x1="256" y1="196" x2="256" y2="316" transform="rotate(90 256 256)"/>
    <line x1="256" y1="196" x2="256" y2="316" transform="rotate(105 256 256)"/>
    <line x1="256" y1="196" x2="256" y2="316" transform="rotate(120 256 256)"/>
    <line x1="256" y1="196" x2="256" y2="316" transform="rotate(135 256 256)"/>
    <line x1="256" y1="196" x2="256" y2="316" transform="rotate(150 256 256)"/>
    <line x1="256" y1="196" x2="256" y2="316" transform="rotate(165 256 256)"/>
  </g>
</svg>
